<mxfile host="65bd71144e">
    <diagram id="ahQKw2slE9bHdu5J9Xqx" name="第 1 页">
        <mxGraphModel dx="1072" dy="451" grid="1" gridSize="10" guides="1" tooltips="1" connect="1" arrows="1" fold="1" page="1" pageScale="1" pageWidth="827" pageHeight="1169" background="#FFFFFF" math="0" shadow="0">
            <root>
                <mxCell id="0"/>
                <mxCell id="1" parent="0"/>
                <mxCell id="2" value="" style="shape=image;verticalLabelPosition=bottom;labelBackgroundColor=#ffffff;verticalAlign=top;aspect=fixed;imageAspect=0;image=data:image/png,iVBORw0KGgoAAAANSUhEUgAAAVoAAADaCAYAAADnlooaAAAgAElEQVR4Ae2dz4scxxXHdfbJ4IMPhr45BOyThIIgYIIOuxgC8cUKWofVL7DRkoPJJSslkETDyAL5IoIPIVoWIaSIJTnIMpaCLw6JFksgocOwC/L8CTnEVx/8QlfV6/rRVf1jpquneuZ7WHqnp7qq+tW3PvX6dU3VkSzLCH+wATQADUAD8TRwBMaNZ1zYFraFBqCBXAMALTx6PNFAA9BAZA0AtFlGb18+oFM3jb/Lo8EIj+v+7odn0qvzhUv0YrpH0+Jvh+5c6MPDeYMef3OEvtt9w7bJudfou8NX6PG55nUY7b5CdHiEqOV18GSb23gVbLXyoJWgekrHT6QkjBG9c/OAmsAzWdAyZB+dt2EX2XPIO+29L3Iwvkr3PGVVfVfq8ONXAViPDUt2QppajUcD7drFMY3HYxpfXKutxOIaTgLtVHIebHPQLs521QPTuds7NJ325cHqukgPtMprld4uffMajWoAIaD8xesJ61ffd6o6QL1kG3UP2vUtAdit9TXaGghom3iO/QpmWUB7na7WwKxbu75O3x56QgZuHUQIoS6dAjJAi4HG1c8Mn7sF7bEN2h5v0ZqoyPBB++aHT+nUzQf0tmXYMgTF43vuFZ+4Re8asd533vN5HMqLLtLp/GV5Rqy4SCPPmQMChww4tuwvS5bvpjXzyUHXrv6+eyqfkx5tDWg5vFDEcP3prz4y47x79OL2SW/nl96sP2TgAr0+hADQujbD57LOm9qkW9BaQEoXtMc/DcPs1E0dr20FWgFFF5o6L9Eg7z2QL92sUMWI3rE+541ZhnmwQRXc/aBVUP/0Fr3JbcODgVGmBnFN/TmP0PHadePFlw1H8ULMiNdKEO/Rw2tavBKoZrjhPD3MIfzsEp3jMhnORl7SNi3BKOKvR+jbsS7ftnHL/Lh+OHoHQdu2IZsv7/mVBK1u9GqgtQOtA9USAM+QALwBOF0PV2DV9bKuK5Wj8/LXPyN5XtdXglZ/FvlX5GuVHwBLtUcrAVr2TBVYFURDecjzJpAzylQ4IAxObRdZ/7owA0DbpJ2RxtWV/zNAW/F23w+qMgQFqEyvMYePCyr3cwBQUrjlMoKCDuarwO7Wy1O3RvWvrG9ZXCFIivtQnq/pzfL9Ca9WeLAn6c4zx5vlOiiv1rq+9QyBGpC2BnfZBnxPOMI2AG1foBVhA8drZHCUjh2C1udBKzhzrHYxoHU8UmUDGT7IY7UKtKUQQUaZAq3lEXcFWgXYJrMSAFAAtKkGANq+QBv0PH1i7Qe0HNdNDrSmR1sBWni0Pu3gXFP49ZkOoG0LWvVCi73BvLGagUrCs9mc3Rbx3AqA+0MfHKPVL76a1b9dB64MHWTVMVr2VEN5eM+3ftRHjLZP0Kx6WQBtBWgzBVX2/PhzPqWqPWgZcPa1YoaB5/FewM+YAREUagVoefaCBXcnbNB8oOgStBlJWNrhAx024LLsl2PCBr6wgQg71MRc3fAMZh1gdoCriYifOwatmtKV/1DB87e1zh0olWP9I7r0Cnk6WO4FSm9zFtAKUPAUr2KOrPYsbZgqr7ZIZwJaecfGdzyfNjTvV39/QMXAoYTVv0cr21/C1pgGZk7jKkSvYFvMtbWnhJk2az2PtvLXYS3BXdQ3FW2jHqY2Fv1/x6BF4y66QVe7fBkOoLpfczUKMwC0q62lblkG0MITWapHSF5tKzyfVgG00puVnQxrHXQLm1UGN0AL0C4VaPPOLH9e619Ypv6ntxou9QvU6LSrDBHce70OAFqAdulAm2XSa8V6tPUAACT7sRFAC9AuIWj76TyAFOzcVAMALUAL0EID0EBkDQC0kQ3cdMRDOnhH0MDyamAlQfuzn/2MfvSjH2EUxyADDUADvWgAoIXQehEavLXl9dbQtvVtC9ACtAAtNAANRNYAQBvZwBjt60d72Ag2WnYNALQpg1YtAKPXKWi6nm0CHbeoe2gth77rGFoxrOd6nHhALz9+QGNHd+P3D+jl+6MWnuWIvvz4gF7mf62u6/l+nftcdqCG7g+gTVUIDCrPyl6hxuzjfGjpxVLZXP/S5paL6ugJgPatW/T84wN6vnamDNSq70oaPUO3LwCwJc2V7LQorZXLjQDa8gpeqa3aNYRZBxJo6XmwjUGbnOgXDVrlgVZ5n8LbPaAvT5Q7qgUVAeWndPutmnTJtcHq1rdj0ErImmA9enpbLJlonrNEswAxDAe0qTx26w4C0GpbtNHx2bWn3pCBm4cIIXhCC1Y6AWSA1rLJAjjSpvyOQesTYXrbjg8ftP51dEsQFI/v0iuWC4mrdXV9GzZmemFyjgnrNXer1r/N8zQGhCJkUF2WEKmb1swn7zgt618tfO3R2uvg5vuTubpV+5UZa+Dyrg9cht7lwUnrXVNXerPekIFbdpMQAkBbDr24dkzsM0CbUoOUFgXnBcfVsYjXtgGtvLYEzSKvHDK8yLgdqnjzwwd03HmMLcG8wn7eBcVVepmPvQh5aVcJA8TV9XdB6fusQPtsh6YFDP077V59ZO/8kKlde03YmrDW52UZU3efs1ZgVPHXC7fobMi2rfLz2QLneMDs6xgftMc2aHs8pu3TR5MZhVbLoz0gaysb3x5nAvA2ZEMC7Aa0/oGitPUOg9YaFAJ7tIWgVJxXECwgq2BTsfW5tkEZyAxaa4PILCO9XbqGmQgHVIGzqKO8pjbMANAmwxKtEd3evnORQXuUNrbzbW22aeNYdUV8lYt1btVAW7d1TZXn6bZBJ6B192IzQGPVRYG2rv5uHf2fdejA+j64B5mtVxegErSO52vchy5jhhkCNSBtC25dF/uecL4/e0QELUN2TCm9CMvFBdAe0KkiTttix90ijmvEZL1wkQK2oGmmq/CgZfhA5d8HaH078ir4To0Yrfjf8IYXAVr5oqzBrATT1vg/Ce83GmjXLsoNGlMKGfAIDtCaoG33KN6dR+sPVVhw7gO0CqpFCIAh68RZ4dH25/1xP12mYxTQpgzZ5fVo+YWW4W02BJWEpx98JbFXeKNuWgualmdVHaMtXnw1rL9brv+zP3TgeqbuZ85rdtBm1PZRHzHa5YN656BNHbJ5xxm+R6ug6j7+i+3H24O2eAnlTK/yzTqQU67KL9gYSOYxDFqeSmbD3Qob5GCODVpffLY0w8CYvjVT6CC/j/xnt03nvWLWgamhZfm/W9CqGQbjsQwbuMdUYrXDB20+4ttzW4UXKLzNWUCb58cesZ5SVniWljeaUaZeZvF8W3MerfSOdR46zQG5+ZXSFgOH8mg6Ba2aEeDEXYuQgXGP0qvdI47R5mnm8WjztsrXJWgzj7by12GtwL183uEQ4dstaA2xpmyMIYA2Zfuhbu3hJcMB9V5tozADQJvEC642/QCgHcjg0KZRkbY9COPbTK11UDWfVgC0wawCrHUA0MYX7PydCB7t/DYcQjsnV0f181rvsoZNfnpbOAUNFqgp0qKtU9ABPFoIcnDeQQodZ+Y6CK8V69HObL+B9leAdqANt2pCxf3CMx2yBgBagBYeLTQADUTWAEAb2cBtRmHEjuG1tdEL0g5HLwAtQAtvJiENAJ7DgWebtgJoE+pk8GiXs5O16ZBIu5waAGgBWni0CWkAoAVol6ZDpuo5plqvZen8v3j0A92c6r/fXYvfqcVPd42f/fp+8hvbvkf/8l/65Ot/0VFrQHmb/jrapuc3tuivxzPKfv4BPb+xTc9H79KvinQ/pb/f2KZ/n327377PdfnNTynLuJ7b9Pef2+21/o/v6ZN/3Om3boVt7LrUtSE82hkNV2fYWb4HaNuJdxYbi2su/Ic+nf5AfYC2qKO7HGNfuvvjIX3y/Hv69R9d2zLAFGiPv0v/zkEr4MZpUwBtRn/4jTEgmHbb/Bddev49XfrLn5KHbceg1Yt9mwvKpLKYDIs+VaClWi+229IcVwW0NSCSAPuA/pDDKyXQqrqwJx0EbV7v4EDCg0Uax45BW74pbDdetkkIWABtc1uFbNjo/IqAVjxal0IG2sYWaDOf9+o7p69vZGvTA236vwPaX53douc31IDgyUPc5/NDWvd8F62OLcuKDtosk9uNp7TTQqpAS7VetlhH9NEzHee8Of0ffXTB7Xx/o98ZsVBfGhEvffQ3yhT0OHbqe5x3Y6uf3h55HhXryyzuowFof3L7f1Y811+me98Vn2tDB2rzyCKeG9iPTK2Xy0s46qOzbbryZsshg4o6luChQSthlz/C538+6HEogtOUY7samE5aKy7cpn4qbY3nLtp9dJ8mkwk92dn0aGeGMku2qs4DoG1psKKzRrguedAyFJ/9h35S3P+IPnpkfL72UgDKBBNDy4SohudL+oXKS6azwS3T6TS5/X/xyE6TNSyzaLsa0JbKVOnNeyryKuxQ3dGyKtCWFhvPiNfEtV6elXbsDezsm2UkXoDN7eUp0I62jJdkCpIOHP/wGxXrZXuoF1r8+J/by4S1Pi/LsGPDNbbkMorjn+iDr7/3vPDT+Vz5fCJAO9nfpc3iOv196/ZsmUd00ModF7ZorWXFYt54qkBLtV7cFgJAFmRdoSpvN/dUrfZW541rJcwcYJYAGMrPLDeUplxmUadSOUZ+ge/kIGADv8jPulcjL/N8ELRqBwdnj7IsK29x7i4+npfv33pHgWfuN/IKgg5UeYaCOwvAtkcZyAxa9zoRwnDLMG3X4P/agWUZPVrezka+EEtrq/FcDKkCLdV6yQ4kH80rvboKz88FlRfaHshJIP9AN0vwVkBrUWYBAk85/J1bTz4vvWZnYGgAgOL6EGjV+Re3TzqDE0OUQwJl8OZ5S9ByGob8Hfp1J2/jdeiguI/8np0YqvWdYRMXoBK0judrpA/l0+i8eCn2X/pgk22Q1jG6R5vx9jYX10pCamTArhrCyCdVoKVaL9FOFXAq2rEijRsWaAraPG95rY4LW7BvUWaTehZgt2LMXHY80FohAqXVkrcaCh2UvOHIoPW9OONZCyKGq+O05rxcgNaAUCHGDs/JmQfphA9SBVqq9ZKaaO7RmrFY1pPrKbYBLeeR773FL+IK2NaC1vO4P8s18/aHGo82DFrtrXLcVr8A26NpCbK5JxcZtAqqRQiAIWvNwVXzX42QAEA7r4hqrgdomz3GpA3aiphn0f418VLj8X820OZ2dMtwP7OtQ+ezYqaDb0BoHSJQsb/alywh0HIstgRMN3br3y5dD0J83/mx2xitfnEly3CB6X7mOvUZOqiN0Z7dpSeTCdW2U6Fl057z/x8/dLC+RXmsFtO76hsrbdBmxG/37Xipf9aBCTE3bJB3xGag/Rv9zniBJjqw8kYLjzbvGGrWQV2ZDACeUmamL75jkE89nrCnExZvsydPaPdsRRsHQZvX/7rYcdf0akthgyCQ/WXWgsdzL9oGnKcnRuuLz5ZmGBjTt3rxaOtnHWzuPJGzDiYTuj/i++vv2DFo5ZxZ81dh43E6IQMWUqpAS7VebDdxVKDjea++ObIMPp2mDK1moNXep84r8NNZBVudzi3TnWfLcdf86KZVA4EbpzU88sImlR6tOzdWb2E+neqQgMhLwVaHBZzvczAqWOs0nJ9nzm0n82j5569GzPVGec2BvP7Sq9Xp8rBCbx5to3u9Qvdzj3ZBc2k7Bm1/I0Qh9EYjs12vVIGWar3msTWutbU3sz0YsqEQgwvuLKMh/GJqZnsY/b7uF3Bchnz6qHnyMPLl67o4ArSRDDtL4wC0HUEpoTadRQfeazzhBU4nVwjzeMDK0xvKCld8P62OTdc64Bjt51cWMvsJoE2oUwK0AG0QMiGPlkMOJU9X2VKBaAgrXAXvPdRHm/z0NtMhg0XEZvmeANpQIy7gPEAL0HLH9B4ZtsV6CDJGa75E810nXoxVLC7ju2YI50TIYO5fv/WjOYB2AUANiRig7Uf0IfvjPOwfSwMALUC7kJhVLEEjX8AyRQ0AtAAtQJuQBlKEBOo0/+AF0KKTAbTQADQQWQMAbWQDwxuY3xuADWHDoWsAoAVo4c1AA9BAZA0AtJENPPSRGPWHNwkNzK8BgDY50I7oy48P6GX+975vb6z5Gx0dBzaEBvrVAECbHGhZAAq4gC0ea5PVKGsVx7qBKypoeavx1FbwGsoPA86uPaWXF27RWXQ0wBYaGLQG4oGWt7AZjwmgnW3EF6D9+AGN0ckG3cnqvB18P1v/GJLdooFWbNC4vUFrp7cB2hlBCdAufwccEixQ19n1GAe0YlcFufttatvY5GIZVOgAHi282RkHaoBxdjB2bbsIoJW7LPDWNQDtHI194gG9BGgBWoB28BroHLQuWN3PXY8Us+Q3FI82e+sWPf/4gJ6vnRm80GZpJ1wzxyANOCfVZ7oFrXoBtrWuBQLQalvMCo7x+3JeLYA7vy1nbQNcB9vPo4EOQXuUNrbHNL64Zo0kAO0cAlUe7Zcn5sgDno2lx3k6C66FDmfVQHegtaZz5VO6fH9p7Ig7lNABZh2gY8/asXFdWtrpDrQBzwke7ewNDtDObjuABrZLSQMAbWCASKGRAFrAIgUdog7z6zA6aFNsJIQO5hdOiu2KOqFdU9UAQAuPFi+LEtZAquBAvdoNagBtsp0Mq3ehM7frzLBXuvYCaJMDrbEeLVbugrednD7ThVnKAw1ACyEDZtAANBBZAwBtZAOnPMqibvDOoIF+NADQArTwZqABaCCyBgDayAaGx9CPxwA7w84pawCgBWjhzUAD0EBkDQC0kQ2c8iiLusELhAb60QBAC9DCm4EGoIHIGgBoIxsYHsMcHsOFS/RiukcPr82RB9oXEE1AAwBtAo0QG8aXt76mx5du0Omh3StAC0gOTbOB+nYMWrX4t2ctWt5DLDZUmuQ/lEVlmtxLkzQALTziJjpBmng6iQNaZ5eF1BoQoI0nqE7bGh4tPNqAh9ipznooA6DtwcitRLF+ix5f/ZI+O5aR8ESvfk2Pxd8tuuzWVaTl77+mx1u/1R3z2A36qrjWSMPnjFCC1+NV198p9n/7JX12SZXh5P3Vxi+Lck9vfKnCFL+lO1zW1a/JTNPYHgZorz7ao+lU/T27ROdcW6i0RZrpDt25YA4oJ+nOsz2aPjpPmZP2xe2TRf113TZpd39Ck8l9uuKWhc8ee5m2xv9aR9IWAG1qncaEZwFOBTkDjgJoCsiyURXYimu02L0gNe7b+30ItAKeciAQ5ar6MpBlvXKwh9O4Igx+FkDcoRcMSFHn8/QwB24OzOIeztNDB74SzCZsFWgFrI3z164LgJdeuJ3dpSeTHLQTuj/SttRl4hxs0VwDcUDrxGhTis/m4kg6dKDA5XqAEmDs1Uqoumkyca0BOAUiL0gLSCnP2YC46EBB0HIdWGR2XRi0DF7ZGe00jTsoe54WVDM6d3uHpiWPleujjupa7a0yaK/TVePes0yCW6fjfODRNm4ny55sPxxN+3UMWo9x17fkRo0JxW2HAFobVI5dA0DNSnCU13UKWhfITiezBwSu93ygLXmbIS/UqosLUAVax/M1OwP+5/bCsWstxAdtltHaxXxH3DR2wM0NOHTQstcoY7fl+KsL6aUDrfJWTQBLL9eI46p4rvZUAdqu4YH8mg9IvYBW7oS7TRvHmlcsZiMOHbShEEHIZksHWuHR6jgrQ9YEbzkkANCG9IHz8bnUA2jV3NrtDTpqPdrFv7mQgAYP2kCIIHS//sd5bX8fiNlr1t5x+YWcrzx/Wd2GDuSLLo61hgA6f+jgyud4GeZrY5zTfaepLaKDVoYN0vFmc8MMHrQZT/0qv/jyNnzgBRunlXDUeTFk89BEcqD1xGdLMwz4Jdp0j2YPHVyh+2rWwWR/lzYTcRK4zXBsD7tF2qxj0K7RljPjYJyQJ8uGXgbQ5vdiArGI1wZeVpXSOumEV8vzXsV30gtdKGgz5a3y/Fl3alYBPzdd7u3O79Fu7jwR07swl3ZYUON+ntKxY9AOo0GSBm0Bj2HYMiUxd14Xnkv7+RVjzi7apXM7r4DmAdoVaGR0jNngKGO0T2j37GzXw+6wG2sAoAVo4a05GihCBojNQhuONhicbY8AbUeGbGt4pIe3Aw2sjgYAWoAWXgs0AA1E1gBAG9nA8FpWx2tBW6OtQxoAaAFaeDPQADQQWQMrCdrQqIPz8EigAWgghgYA2sgjWYxGQ56AATQwLA0AtAAtHhuhAWggsgYA2sgGhucxLM8D7YX2iqGBlQXtaPcVosMjRIev0ONzEFcMcSFP6AoakBpYWdCyACRwAVu2B46AIzTQvQaigVYu9p3vrCD/Uts3TIvpdfr28Ah9O+7euLoM5A1bQAOrrIEIoFVLJSa4PKK/oSVov9t9Ay8EEK+GBqCBKBroHLRioe/BQDb3MgBa/wAEDwx2gQa60kC3oD22QdvjMW2tD6mBANquxIR8hqR71LVPvXYLWrG1+DZtrEvgcnw2pR1wy8Z9gx5/c4QQOkDHK2sDNoFNutFAp6AtXoBZoQO1OWNC24274rn3RT7N61W6h/hUlPiUa2987qbzwo7DsWME0Ho2YhxCSOHca/SdmFcL4KIDD6cDo62G0Vadgjbj0MEx5+YTB63waL95jUbwaOHRQgPQQAQNdAvaEFBDAI5wQ+1HeLwMa28zZyBNoh1RJ7RjuhroFrRZRmJ6lxWPVfNqL64lOlICtOig6XZQtM1ytE3noM2FIWE7hF+F5Y0I0KIzL0dnRjum245RQDusBgdoh9Ve6XYm2BFtE9IAQAuPNtGQDjptqNPi/PC0sfKgxepdwxMtQIM2G5oGVha0ej1arNw1NNGivgDt0DSwsqAdWkOhvoALNDBcDQC0mAOKGC00AA1E1gBAG9nA8EKG64Wg7dB2XWkAoAVo4c1AA9BAZA0AtJEN3NWIiHzgXUEDw9UAQAvQwpuBBqCByBoAaCMbGF7IcL0QtB3arisNALQALbwZaAAaiKyBTkFb7LCgthjXW9nIBWaGtZcYRvOuRnPkAy2tugY6BW3ImBLAW7QWedQIlY/z6OjQADSwSA30ANrU16OFABcpQJQN/a2CBqKDVnqznn3E4N0iLgYNQAMrooHIoIU3uwqjNe4RXik0UK2BqKCFN1ttfIgT9oEGVkMDEUELbxadaDU6EdoZ7VyngWighTcL8dWJD99DI6uigUighTe7KgLCfQKW0EC9BqKAFt5sveEhTtgIGlgdDUQArfJmtzfo6IpM3UCHWZ0Og7ZGW8+igQigRUPM0hC4BrqBBpZXAwAtvG5MmocGoIHIGgBoIxsYXsryeiloW7RtUw0AtAAtvBloABqIrAGANrKBm454SAfvCBpYXg0AtAAtvBloABqIrAGANrKB4aUsr5eCtkXbNtUAQAvQwpuBBqCByBoAaCMbuOmIh3TwjqCB5dUAQAvQwpuBBqCByBoAaCMbGF7K8nopaFu0bVMNALQpg/bCJXox3aNp8bdDdy4MSdwn6c4zs/579OL2yR68pzfo8TdH6LvdN5yyQueHZFPUtSncUkoH0KYKWobso/MOLIbS0Riy1+lqzza+98URosNX6Z6v3PGrRIdH6NvxUOyIeqYEzFnrEgW0axfHNB6bf9hqvG0Dnbu9Q9Pp0DxYAwpqoOjHg9XljnZfITp8hR6f0+dc2zdJ416Dz2F7wjb1tukYtEdpY3tMY2uJRHVuDNi2EaQEbf/eYJs6VqZVoH14rV6Elfn4vNLgudfp20NfyMCtgwwh0Dev0SiYl3sNPnfXTqtny25Be2yDtsdj2lp3DLm+ReNxOluOv335gE7dfEBvlzrZiN65eUCnLo/04/qJW/Rufq74e0rHT9j39+aHT1V+Z+j4p0baT2/Rm6Uy7GtD4q0G7Xl6ON2jHGIyHcdBEwJzE9ByeKSIQfvrf/UR3588hrxk6akGQgZuO9SGEDZpd39Ck8l9uuJei8+6f8AWjWwRBbTbp49ahcsdFxLyaN97IMD5znsO9MR5E6QjeseBpYS0mSYjCVoJ2Hc/PKPu3QPtOlFeu268+LLhIl6IFfFaCVr7nIqJPrtE5+rKifa9Ua8CnuZ9aJDyAGF6vBKoZrhE5WfeE8O5sAW3ofJSv3jd0l5oIMsy6f1SKP3ZXXoyyUE7ofsjLgPHsD1hmyrbdAvaLCMJ1TGNL64JwfPnkpcbrbM3aXA/BAVEHbCWjKc8XA1UDVoX3I3yC9ihiUc7NQGUsXerYVaqu7esK3RfASWHSunv8ysNweXYvdKjlQAte6YKrAqiIRvI8yaQM8rOvUbftXzJJV6aBcMH8Gib6cdpd6/GkKZz0IrGUSEE+UIsnZCBKRz9uM8ikPA1AWqm1/+X08m8bC9Xp+f82x1DkJH5+kFVfU278uetf1YFWuW5m94slye8WjGAVHjovrxFKKD6JRiXwcdWoQYAZLYBF3YTdusctOzBcvigmIGgPFwW+cKPyjMtvFARNijHbc2wgI7THpAJZIDWA3EfDLnTCdA6Hqn6ToYPcq9cgbYUIsiIIW55xAAtQMj6SvDYLWjFS68xMWQZpgzftMIH6sWVevElHvPNl2BZKCSwbB7tAkIHdaA1PdoK0FoeMUAL0CYIWGZgp6ANAjUAYK7Ewo6FFyvhWXi3osEUiEsx22UDrccb7UKwVR5t5g99ZM75UCjEe77zGG1GVz7Hy7CF9c0uNJhQHp2CNuPYrHcebYqxWgXYyw/oVAmoGZVmGBhTvRA6qAF0JWj5xZ0dPtBhA87bfjkmOr3K1wobiA7V8ayDzPD093dpM6FOC/ixPoZz7Ba0uRgZtgP5ZZiEqR1z1UJ25sWKubfwaLV9KoReA9o8D+mZGtO/nFkUshwFW2O6mBUyMADY6uVWg1DD5s4TNQsDc2kbtbnRFkhv943uQQtjI1a2MA3UzI0t6tXQ++W5tLNOcSvKszsdILR69gBo0RmWamCQXm31ojEyTf1UMBmjfUK7Z1cPDBgMum1zgBagXSrQ5oCQq3cFQCpCBtUgLkIGiM0unTYWNYAAtADtEnYmGRrAerTdekIUN+sAAAOiSURBVGWLgtQylAvQArRLCFoAZhngtEz3ANACtAAtNAANRNYAQBvZwMs0KuNe4ClDA7NpYCVB++Mf/5jwBxtAA9BAXxoAaAFdDDrQADQQWQMrDVo8Bs32GAS7wW7QQDsNALSI0eJFCDQADUTWAECbZSQXMzF+c+9bmq9VQ8ifgpa2tBYrTAUm0rfKv91oCu8D9oIGFquBlQethKy9itR8olS/ow9skSJ/tdRwA0HAF54WNLAUGogC2st392l/X//d/f1iRxMXnPymkdc/nc7twer7qwdpNYjduuKzti1sAVsMVQMdg/Y0ffbPfdr/52d0mkfiDz6jr/b36as/n05mZHJBW17bdEZBN118WqUr/0R0xnLZ1jgmo7GhAgH1jtMHOwXt6T9/Rfv7d+my0+Glh1s+v6hGbQpasV6qWCPVXhM1BObqXVXtBqz1fLFEH6Dp9KNF9ReUa/fdWezRKWgFUE1vloXy+7u0v/8VffbB/BWe5Sbda+49N158GQtKT8X/Ol6rF6bW57LgDq7yBVhjL7VmFaliBakJFp122w+f0+hHaIfm7dApaEMebSZAu0+pxGpbebTTPbJX9A/sd9VgxX5bmDVghkcLj5YdFRwHr4VOQZupeOz+3cuGYS7TXfVibJigzbe+NkcuP2hbbaMi8mu4yr9VtlkP/G8PXLAH7JGuBroFbQ4Fhm0x6+AuXU4sdNDOowVo0YHT7cBom2G0Tfeg9XhgwZCCJ20fwgFohyHOPrSAMqCFPjTQA2jllK8hTu+SL8OaebRZ1zHaYrtrvAzroyOgDAA3pgbigpbDCFbMdvENGsOjzbKal1uu914z6yAb3VdbXU/oyc6mEfNevP1iChJ5o32XUQMdg1a/+JK/DEtnSpfZeHFAqzYFDPz01iw//79+zu0m7e5PJGyx3TUGGnegxudBaaJj0A5jNNag7bi+TX/x1fAXZDyX9v6o43qikw6qk7qDND4Prz8AtB1DR/7iq2qFrqZrHVyh+5MJTbDlNaDYsUYB6v5BDdB2LmIF0kP/Cl21P73NdMgAsdn+OwQgBJvH0ABA2zloc6FiPdoYYkWegOBQNQDQRgEtOsRQOwTqDe3G0MBKg5ZfiuGI3VChAWggpgYA2si7X8ZsPOQNOEADw9DASoI2xqMB8sQjJzQADYQ0ANAiRovpU9AANBBZAwBtZAOHRjich/cDDayOBgBagBbeDDQADUTWAEAb2cDwWlbHa0Fbo61DGvg/1A3FeOgeTEkAAAAASUVORK5CYII=;" vertex="1" parent="1">
                    <mxGeometry x="780" width="206.33" height="130" as="geometry"/>
                </mxCell>
                <mxCell id="3" value="" style="rounded=0;whiteSpace=wrap;html=1;fillColor=#f5f5f5;strokeColor=#666666;fontColor=#333333;" vertex="1" parent="1">
                    <mxGeometry x="160" y="80" width="160" height="320" as="geometry"/>
                </mxCell>
                <mxCell id="5" value="Text" style="text;html=1;strokeColor=none;fillColor=none;align=center;verticalAlign=middle;whiteSpace=wrap;rounded=0;" vertex="1" parent="1">
                    <mxGeometry x="450" y="220" width="40" height="20" as="geometry"/>
                </mxCell>
                <mxCell id="6" value="&lt;font color=&quot;#000000&quot;&gt;ESack调用栈&lt;/font&gt;" style="text;html=1;strokeColor=none;fillColor=none;align=center;verticalAlign=middle;whiteSpace=wrap;rounded=0;" vertex="1" parent="1">
                    <mxGeometry x="160" y="55" width="80" height="20" as="geometry"/>
                </mxCell>
                <mxCell id="7" value="" style="rounded=0;whiteSpace=wrap;html=1;fillColor=#f5f5f5;strokeColor=#666666;fontColor=#333333;" vertex="1" parent="1">
                    <mxGeometry x="400" y="80" width="220" height="320" as="geometry"/>
                </mxCell>
                <mxCell id="8" value="&lt;font color=&quot;#000000&quot;&gt;堆内存&lt;/font&gt;" style="text;html=1;strokeColor=none;fillColor=none;align=center;verticalAlign=middle;whiteSpace=wrap;rounded=0;" vertex="1" parent="1">
                    <mxGeometry x="400" y="55" width="40" height="20" as="geometry"/>
                </mxCell>
            </root>
        </mxGraphModel>
    </diagram>
</mxfile>